<svg width="17" height="16" viewBox="0 0 17 16" fill="none" xmlns="http://www.w3.org/2000/svg">
<path d="M15.037 6.6945H14.5V6.66683H8.49998V9.3335H12.2676C11.718 10.8858 10.241 12.0002 8.49998 12.0002C6.29098 12.0002 4.49998 10.2092 4.49998 8.00016C4.49998 5.79116 6.29098 4.00016 8.49998 4.00016C9.51965 4.00016 10.4473 4.38483 11.1536 5.01316L13.0393 3.1275C11.8486 2.01783 10.256 1.3335 8.49998 1.3335C4.81831 1.3335 1.83331 4.3185 1.83331 8.00016C1.83331 11.6818 4.81831 14.6668 8.49998 14.6668C12.1816 14.6668 15.1666 11.6818 15.1666 8.00016C15.1666 7.55316 15.1206 7.11683 15.037 6.6945Z" fill="#FFC107"/>
<path d="M2.60199 4.89716L4.79232 6.5035C5.38499 5.03616 6.82032 4.00016 8.49999 4.00016C9.51966 4.00016 10.4473 4.38483 11.1537 5.01316L13.0393 3.1275C11.8487 2.01783 10.256 1.3335 8.49999 1.3335C5.93932 1.3335 3.71866 2.77916 2.60199 4.89716Z" fill="#FF3D00"/>
<path d="M8.5 14.6669C10.222 14.6669 11.7867 14.0079 12.9697 12.9362L10.9063 11.1902C10.2146 11.7166 9.3692 12.0012 8.5 12.0002C6.766 12.0002 5.29367 10.8946 4.739 9.35156L2.565 11.0266C3.66834 13.1856 5.909 14.6669 8.5 14.6669Z" fill="#4CAF50"/>
<path d="M15.037 6.69417H14.5V6.6665H8.5V9.33317H12.2677C12.0047 10.072 11.5311 10.7176 10.9053 11.1902L10.9063 11.1895L12.9697 12.9355C12.8237 13.0682 15.1667 11.3332 15.1667 7.99984C15.1667 7.55284 15.1207 7.1165 15.037 6.69417Z" fill="#1976D2"/>
</svg>
