<svg width="17" height="16" viewBox="0 0 17 16" fill="none" xmlns="http://www.w3.org/2000/svg">
<path d="M5.19288 10.8053C5.59143 11.0623 6.03338 11.2197 6.47103 11.3194C6.45524 11.3654 6.44071 11.4127 6.42752 11.4613C6.29862 11.4957 6.15249 11.5179 6.0082 11.5054C5.79811 11.4871 5.5584 11.3957 5.35393 11.0385L5.35367 11.038L5.34735 11.027C5.34238 11.0185 5.33588 11.0077 5.32783 10.9948C5.31177 10.969 5.28939 10.9348 5.2607 10.8948C5.24129 10.8677 5.21868 10.8375 5.19288 10.8053ZM5.4099 13.3418C5.67361 13.4233 5.98003 13.4643 6.33331 13.4457V13.7814C6.01194 13.6601 5.70328 13.5127 5.4099 13.3418ZM3.75277 11.5517C3.85101 11.6511 3.99626 11.8357 4.12355 12.152C4.12463 12.1552 4.12579 12.1585 4.12705 12.162C4.13311 12.1791 4.14134 12.2009 4.15206 12.2267C4.17343 12.2782 4.20503 12.3463 4.24953 12.4241C4.26898 12.4581 4.29105 12.4943 4.31598 12.532C3.09716 11.4034 2.33331 9.79047 2.33331 8.00016C2.33331 6.36466 2.98301 4.79615 4.13949 3.63967C4.71212 3.06704 5.39192 2.61281 6.1401 2.30291C6.88827 1.993 7.69016 1.8335 8.49998 1.8335C9.3098 1.8335 10.1117 1.993 10.8599 2.30291C11.608 2.61281 12.2878 3.06704 12.8605 3.63967C13.4331 4.2123 13.8873 4.89211 14.1972 5.64028C14.5071 6.38846 14.6666 7.19034 14.6666 8.00016C14.6666 10.6451 13.0056 12.8973 10.6666 13.7834V12.1735C10.6666 11.8497 10.6158 11.5608 10.5274 11.3117C11.079 11.1866 11.6375 10.9712 12.1073 10.5803C12.8237 9.98424 13.2533 9.05059 13.2533 7.66683C13.2533 6.91179 13.0246 6.27326 12.6244 5.74833C12.7182 5.36192 12.7839 4.69901 12.463 3.91151L12.375 3.69552L12.153 3.62415L12 4.10016C12.153 3.62415 12.1525 3.62399 12.152 3.62384L12.151 3.62353L12.1491 3.6229L12.1449 3.62162L12.1359 3.61897C12.1296 3.61717 12.1227 3.6153 12.1152 3.61342C12.1002 3.60965 12.0828 3.6058 12.063 3.6022C12.0234 3.59499 11.9746 3.5888 11.9163 3.58604C11.7994 3.58049 11.6473 3.5888 11.4586 3.62823C11.1181 3.69937 10.6622 3.87088 10.0776 4.24094C9.56816 4.11981 9.03005 4.06016 8.49998 4.06016C7.96991 4.06016 7.43179 4.11981 6.92235 4.24094C6.3378 3.87088 5.8819 3.69937 5.5414 3.62823C5.35266 3.5888 5.20053 3.58049 5.08366 3.58604C5.02539 3.5888 4.97653 3.59499 4.93693 3.6022C4.91715 3.6058 4.89977 3.60965 4.88476 3.61342C4.87726 3.6153 4.87036 3.61717 4.86406 3.61897L4.85507 3.62162L4.85091 3.6229L4.84891 3.62353L4.84794 3.62384C4.84746 3.62399 4.84698 3.62415 4.99998 4.10016L4.84698 3.62415L4.62493 3.69552L4.53693 3.91151C4.2161 4.69901 4.28172 5.36191 4.37556 5.74833C3.97532 6.27326 3.74665 6.91179 3.74665 7.66683C3.74665 8.84489 4.05829 9.6981 4.59259 10.2949C4.40954 10.1957 4.18997 10.1192 3.93489 10.1014L3.92255 10.1005L3.91018 10.1003L3.89998 10.6002C3.91018 10.1003 3.91003 10.1003 3.90987 10.1003L3.90955 10.1003L3.90885 10.1002L3.90726 10.1002L3.9033 10.1002L3.89244 10.1001C3.88396 10.1001 3.87291 10.1002 3.85983 10.1006C3.83409 10.1013 3.79828 10.1029 3.75733 10.107C3.69539 10.1133 3.5456 10.1311 3.40739 10.2075C3.33327 10.2484 3.21434 10.3326 3.14489 10.4882C3.06803 10.6604 3.09045 10.8311 3.14418 10.9581C3.19251 11.0723 3.26799 11.1598 3.33208 11.2223C3.3999 11.2884 3.48121 11.3517 3.57179 11.4134L3.60347 11.435L3.62655 11.446C3.62957 11.4478 3.63449 11.451 3.64111 11.4556C3.66262 11.4705 3.7024 11.5008 3.75277 11.5517ZM4.02523 10.5011C4.02528 10.5011 4.02604 10.5019 4.02737 10.5035C4.02584 10.5019 4.02518 10.5011 4.02523 10.5011Z" fill="black" stroke="#000001"/>
</svg>
